# xmcd
# 
# Track frame offsets:
#     150
#     73287
#     89732
#     145162
#     182477
#     224030
#     256520
#     280597
# 
# Disc length: 4113
# 
# Revision: 1
# Processed by: cddbd v1.5.2PL0 Copyright (c) Steve Scherf et al.
# Submitted via: BonkEnc v1.0.8
# 
DISCID=7a100f08
DTITLE=Ornette Coleman - An Evening with Ornet Coleman
DYEAR=1965
DGENRE=Jazz
TTITLE0=Sounds and Forms for Wind Quintet
TTITLE1=Sadness
TTITLE2=Clergyman's Dream
TTITLE3=Falling Stars
TTITLE4=Silence
TTITLE5=Happy Fool
TTITLE6=Ballad
TTITLE7=Doughnuts
EXTD=
EXTT0=
EXTT1=
EXTT2=
EXTT3=
EXTT4=
EXTT5=
EXTT6=
EXTT7=
PLAYORDER=
